<svg width="42" height="43" viewBox="0 0 42 43" fill="none" xmlns="http://www.w3.org/2000/svg">
<path d="M20.75 41.0135C31.7957 41.0135 40.75 32.0592 40.75 21.0135C40.75 9.96785 31.7957 1.01355 20.75 1.01355C9.7043 1.01355 0.75 9.96785 0.75 21.0135C0.75 32.0592 9.7043 41.0135 20.75 41.0135Z" stroke="white" stroke-width="1.5" stroke-linecap="square"/>
<path d="M20.75 41.0135C26.0833 36.1651 28.75 29.4984 28.75 21.0135C28.75 12.5287 26.0833 5.86203 20.75 1.01355C15.4167 5.86203 12.75 12.5287 12.75 21.0135C12.75 29.4984 15.4167 36.1651 20.75 41.0135Z" stroke="white" stroke-width="1.5" stroke-linecap="round"/>
<path d="M1.75 15.0135H39.75M1.75 27.0135H39.75" stroke="white" stroke-width="1.5" stroke-linecap="round"/>
</svg>
