<svg width="92" height="82" viewBox="0 0 92 82" fill="none" xmlns="http://www.w3.org/2000/svg">
<g clip-path="url(#clip0_99_311)">
<path fill-rule="evenodd" clip-rule="evenodd" d="M65.3777 67.9865C67.5075 67.1044 69.9967 67.1802 72.1121 68.097C73.2512 68.5901 74.296 69.3258 75.0647 70.2973C76.0802 71.5814 76.5712 73.2408 76.5402 74.8745C76.516 76.1267 76.1912 77.3801 75.5472 78.4563C74.6732 79.9158 73.2288 81.0051 71.613 81.5541C70.7844 81.836 69.9145 81.9795 69.0399 82H68.6C67.9135 81.984 67.2275 81.8935 66.5605 81.7363C64.9689 81.3599 63.4428 80.5855 62.3526 79.372C60.8151 77.6614 60.2832 75.1416 60.9042 72.9316C61.5252 70.7215 63.2479 68.8686 65.3777 67.9865ZM68.8582 70.3394C68.1774 70.3093 67.4816 70.4186 66.8727 70.7221C65.1667 71.5723 64.5198 73.7447 64.7607 75.6273C64.8769 76.5356 65.1673 77.4433 65.7434 78.1574C66.484 79.0753 67.6869 79.6037 68.868 79.5291C70.0484 79.4551 71.1754 78.7803 71.7936 77.777C72.1236 77.2411 72.3116 76.629 72.4278 76.0111C72.6181 75.0043 72.6244 73.9452 72.3001 72.9726C71.9758 72 71.295 71.1219 70.363 70.6857C69.8943 70.4664 69.3757 70.3628 68.8582 70.3394Z" fill="white"/>
<path d="M81.0257 67.5401C81.2982 67.539 81.5846 67.5464 81.8203 67.6819C81.9859 67.777 82.1119 67.9274 82.2338 68.0743C84.3434 70.6163 86.4531 73.1583 88.5628 75.7003C88.5634 73.1406 88.5645 70.581 88.5651 68.0213C88.5651 67.9023 88.5691 67.7719 88.6467 67.6808C88.7428 67.5675 88.9112 67.5589 89.0602 67.5584C89.9152 67.5584 90.7696 67.5578 91.6247 67.5578C91.7218 67.5578 91.8276 67.5606 91.9018 67.6233C91.9806 67.6899 91.9967 67.7998 91.9996 67.9057V81.4295C91.9978 81.5052 91.9892 81.5821 91.9455 81.6424C91.8667 81.75 91.7126 81.7609 91.5787 81.7614C90.9795 81.7648 90.3804 81.7683 89.7812 81.7717C89.5236 81.7728 89.2539 81.7717 89.0262 81.6521C88.844 81.5564 88.7071 81.3941 88.5754 81.2358C86.3749 78.5948 84.1744 75.9531 81.9739 73.312C81.9302 76.0858 81.9227 78.8601 81.9514 81.6345C80.9584 81.7814 79.9487 81.8195 78.9471 81.7489C78.8246 81.7404 78.6854 81.721 78.6159 81.6202C78.5681 81.5513 78.5664 81.4625 78.5664 81.3793L78.5676 67.6779C79.3835 67.5885 80.2046 67.5424 81.0257 67.5401Z" fill="white"/>
<path fill-rule="evenodd" clip-rule="evenodd" d="M46.9732 67.5885C48.4551 67.5151 49.9399 67.5396 51.4235 67.564C52.7607 67.5857 54.1136 67.6096 55.4062 67.9513C56.0962 68.1335 56.7686 68.4085 57.3435 68.8299C58.6668 69.7985 59.3539 71.5314 59.1268 73.1497C58.8997 74.7681 57.7985 76.2219 56.3308 76.9559C57.6111 78.5424 58.8916 80.1288 60.1721 81.7153C59.006 81.7535 57.8393 81.7757 56.6727 81.7814C56.4074 81.7831 56.1296 81.7808 55.8954 81.6566C55.6933 81.5496 55.547 81.3645 55.4069 81.184C54.6168 80.1681 53.8267 79.1522 53.0365 78.1363C52.5509 77.5122 51.6121 77.539 50.8233 77.6255C50.6425 77.6449 50.4108 77.7178 50.4112 77.8983C50.4141 79.0349 50.417 80.1715 50.42 81.3081C50.4202 81.4181 50.4177 81.5371 50.3507 81.6248C50.2562 81.7483 50.0765 81.7597 49.9202 81.7597C48.936 81.7609 47.9518 81.7614 46.9675 81.7626C46.8716 81.7626 46.7656 81.7586 46.6954 81.6937C46.6186 81.6225 46.6133 81.5052 46.6133 81.401C46.6133 76.9263 46.6133 72.4516 46.6133 67.9775C46.6133 67.8687 46.6184 67.7468 46.6967 67.6711C46.7672 67.6028 46.8748 67.5936 46.9732 67.5885ZM52.177 70.409C51.6913 70.4095 51.2056 70.4107 50.7199 70.4118C50.6704 70.4118 50.6194 70.4124 50.5738 70.4312C50.4377 70.4881 50.4168 70.6681 50.4167 70.8144C50.4162 72.0837 50.4155 73.3524 50.4149 74.6212C50.4149 74.7003 50.4211 74.792 50.4861 74.837C50.5274 74.866 50.5816 74.8672 50.6321 74.8672C51.123 74.8683 51.6139 74.8694 52.1048 74.8706C52.631 74.8717 53.164 74.8723 53.6734 74.7407C54.1828 74.6098 54.6744 74.3302 54.9498 73.8843C55.18 73.5113 55.2397 73.0592 55.2542 72.6218C55.266 72.2654 55.2491 71.8981 55.1049 71.5712C54.8807 71.0627 54.3726 70.7227 53.8375 70.565C53.3024 70.4073 52.7351 70.4073 52.177 70.409Z" fill="white"/>
<path d="M0.459581 67.5509C1.46079 67.5623 2.46203 67.5737 3.46324 67.585C3.61573 67.5868 3.77647 67.5907 3.90707 67.6688C4.03171 67.7439 4.10934 67.8743 4.18181 68.0002C5.60453 70.4653 7.02725 72.9304 8.44997 75.3955C9.83227 72.9526 11.2146 70.5097 12.5969 68.0668C12.6763 67.9261 12.7617 67.7798 12.9006 67.6972C13.0416 67.6141 13.2144 67.6101 13.3785 67.609C14.3963 67.5999 15.4143 67.5913 16.4322 67.5822C16.5233 67.5816 16.6193 67.5816 16.698 67.6278C16.8507 67.716 16.8685 67.925 16.8685 68.101L16.8667 81.2437C16.8667 81.3667 16.8639 81.4989 16.7923 81.5991C16.6816 81.754 16.46 81.7682 16.2691 81.7676C15.4275 81.7654 14.586 81.7636 13.7444 81.7614C13.6058 81.7614 13.4455 81.7505 13.3642 81.6389C13.31 81.5643 13.3079 81.4658 13.308 81.3736C13.3088 78.5343 13.3097 75.6945 13.3106 72.8553L10.2092 78.4569C9.94727 78.9295 9.67409 79.4164 9.24686 79.7495C8.81958 80.0826 8.19387 80.2262 7.72875 79.9471C7.43308 79.7706 7.25 79.4591 7.07934 79.1607C5.87311 77.0526 4.66693 74.9445 3.46072 72.8365C3.44895 75.649 3.43715 78.462 3.42538 81.2751C3.42475 81.4271 3.41356 81.6019 3.29229 81.6947C3.20495 81.7614 3.08582 81.7642 2.97563 81.7642C2.09731 81.7636 1.21895 81.7631 0.340628 81.7631C0.249242 81.7625 0.148697 81.7597 0.080979 81.6982C0.019234 81.6429 0.00376196 81.5569 0 81.4715V73.2476C0.000292459 71.4937 0.000605958 69.7398 0.000898438 67.9865C0.000918557 67.8686 0.00544673 67.7394 0.0854117 67.6528C0.175696 67.5549 0.326161 67.5492 0.459581 67.5509Z" fill="white"/>
<path d="M33.5018 67.531C33.6524 67.5271 33.8159 67.5271 33.9363 67.6176C34.0409 67.6956 34.09 67.8254 34.1339 67.9484C35.3108 71.2313 36.4876 74.5141 37.6644 77.797L41.1941 67.9986C41.2325 67.8915 41.2751 67.7793 41.3651 67.7093C41.4578 67.637 41.5824 67.625 41.6997 67.6165C42.8669 67.5299 44.0404 67.5265 45.2081 67.6068L39.819 81.3236C39.7694 81.45 39.7148 81.5827 39.6059 81.6641C39.4798 81.758 39.3099 81.762 39.1523 81.762C38.1353 81.7637 37.1183 81.7649 36.1013 81.7666C35.9604 81.7666 35.8111 81.7643 35.6914 81.6903C35.5533 81.6049 35.486 81.4437 35.4272 81.2928C33.6897 76.8346 31.9523 72.377 30.2148 67.9188C30.1883 67.8505 30.1621 67.7725 30.1952 67.7076C30.2378 67.6239 30.3503 67.6108 30.4446 67.6079C31.4637 67.5823 32.4827 67.5567 33.5018 67.531Z" fill="white"/>
<path d="M29.0491 67.543C29.193 67.543 29.3528 67.5492 29.4553 67.6495C29.56 67.752 29.5668 67.9148 29.5668 68.0606C29.567 68.5942 29.5672 69.1283 29.5674 69.6619C29.5675 69.9779 29.4679 70.401 29.1502 70.4022C27.2632 70.4061 25.3762 70.4101 23.4893 70.4141C23.3613 70.4147 23.2165 70.4221 23.1325 70.5183C23.062 70.5986 23.0584 70.7159 23.0584 70.823C23.0584 71.5371 23.0583 72.2511 23.0583 72.9658C23.0583 73.1093 23.0689 73.2744 23.1845 73.3598C23.2665 73.4208 23.3771 73.4213 23.4793 73.4191C25.0352 73.3877 26.5912 73.3564 28.1471 73.3251C28.377 73.3206 28.4583 73.6229 28.4665 73.8518C28.4846 74.3586 28.5027 74.8655 28.5208 75.3717C28.5316 75.6769 28.4436 76.0915 28.137 76.0909C26.5902 76.0881 25.0434 76.0846 23.4967 76.0818C23.3607 76.0818 23.2039 76.0909 23.1228 76.1997C23.0679 76.2731 23.065 76.3716 23.0643 76.4627C23.0589 77.129 23.0536 77.7958 23.0483 78.4621C23.0467 78.6523 23.0634 78.8766 23.2261 78.9763C23.3142 79.0304 23.4236 79.0315 23.527 79.0309L29.2381 79.0053C29.362 79.0047 29.4991 79.0093 29.5892 79.0942C29.6858 79.1847 29.6918 79.3333 29.6912 79.4654C29.6886 80.1123 29.686 80.7586 29.6833 81.4055C29.6828 81.5097 29.6768 81.627 29.5987 81.6971C29.5305 81.7574 29.4298 81.7609 29.3383 81.7609C26.0947 81.7609 22.8511 81.7609 19.6075 81.7603C19.5101 81.7603 19.4016 81.7563 19.3324 81.688C19.2627 81.6191 19.2582 81.5097 19.2582 81.4124C19.2581 76.9303 19.2579 72.4487 19.2578 67.9666C19.2578 67.8562 19.2617 67.7349 19.3349 67.6517C19.4217 67.5527 19.5709 67.5452 19.7029 67.5452C22.8183 67.5447 25.9337 67.5435 29.0491 67.543Z" fill="white"/>
<path fill-rule="evenodd" clip-rule="evenodd" d="M46.1115 0C48.4497 13.0094 53.5033 25.595 61.3132 36.2857C69.1234 46.9765 79.7287 55.7232 91.9791 60.8377C76.6485 61.3035 61.2051 56.6515 48.7093 47.804C47.539 46.9754 45.9445 46.0972 44.7893 46.9466C32.0167 56.3375 16.0278 61.3138 0.152344 60.8394C12.4367 55.7737 23.064 47.0198 30.8808 36.318C38.6975 25.6162 43.7462 13.0174 46.1115 0ZM46.0936 28.4195C36.1816 43.6503 20.6505 55.1726 3.14863 60.2802C19.3922 58.0611 34.8035 50.2151 46.1131 38.4063C57.3636 50.0881 72.5631 58.0264 88.6763 60.2165C71.3487 54.9694 55.9965 43.5056 46.0936 28.4195Z" fill="white"/>
</g>
<defs>
<clipPath id="clip0_99_311">
<rect width="92" height="82" fill="white"/>
</clipPath>
</defs>
</svg>
